<svg width="20" height="20" viewBox="0 0 20 20" fill="none" xmlns="http://www.w3.org/2000/svg">
<path fill-rule="evenodd" clip-rule="evenodd" d="M18.3333 11.663V18.3333H1.66667V1.66667H8.33702C8.79597 1.66667 9.16667 1.29357 9.16667 0.833333C9.16667 0.369887 8.79522 0 8.33702 0H0.829648C0.370697 0 0 0.373096 0 0.833333V0.833623V0.833912V19.1661V19.1664V19.1667C0 19.3983 0.0932606 19.6065 0.244267 19.7561C0.395056 19.9069 0.603311 20 0.833333 20H0.833623H0.833912H19.1661H19.1664H19.1667C19.6301 20 20 19.6286 20 19.1704V11.663C20 11.204 19.6269 10.8333 19.1667 10.8333C18.7032 10.8333 18.3333 11.2048 18.3333 11.663ZM7.61482 13.5637L18.3333 2.84518V5.83581C18.3333 6.29395 18.7064 6.66667 19.1667 6.66667C19.6301 6.66667 20 6.29468 20 5.83581V0.830858C20 0.602197 19.9071 0.394816 19.7558 0.242072C19.6056 0.0921429 19.3982 0 19.1691 0H14.1642C13.706 0 13.3333 0.373096 13.3333 0.833333C13.3333 1.29678 13.7053 1.66667 14.1642 1.66667H17.1548L6.43631 12.3852C6.11043 12.7111 6.10942 13.2397 6.43485 13.5651C6.76256 13.8929 7.28858 13.8899 7.61482 13.5637Z" fill="white"/>
</svg>
