<svg width="14" height="13" viewBox="0 0 14 13" fill="none" xmlns="http://www.w3.org/2000/svg">
<path d="M2.24311 12.0473H0.433308C0.280367 12.0473 0.178406 11.9507 0.178406 11.8059V4.24914C0.178406 4.10428 0.280367 4.00771 0.433308 4.00771H2.24311C2.39605 4.00771 2.49801 4.10428 2.49801 4.24914V11.83C2.49801 11.9507 2.39605 12.0473 2.24311 12.0473Z" fill="#00C6BA"/>
<path d="M9.74133 12.5357H5.02216C4.15214 12.5357 3.46667 11.8719 3.46667 11.0852V4.59463C3.46667 4.54546 3.49304 4.4717 3.5194 4.44712L6.89401 0.562626C6.94673 0.48887 7.02583 0.464285 7.13128 0.464285C7.15765 0.48887 7.15765 0.48887 7.97493 0.685553C8.50222 0.80848 8.84495 1.30019 8.73949 1.81648C8.58131 2.57863 8.2913 3.78331 8.15948 4.34878H11.3232C12.0877 4.34878 12.5359 4.4717 12.7732 4.71756C13.0368 4.988 13.0105 5.35678 12.9841 5.70097C12.9841 5.79932 12.9577 5.92224 12.9577 6.02058V7.76615C12.9577 7.81532 12.9577 7.8399 12.9314 7.88907C12.905 7.91366 11.5077 10.2247 9.92588 12.462C9.89951 12.5111 9.82042 12.5357 9.74133 12.5357Z" fill="#00C6BA"/>
</svg>
