<svg width="14" height="13" viewBox="0 0 14 13" fill="none" xmlns="http://www.w3.org/2000/svg">
<path d="M11.5843 0.0259981H13.5334C13.6981 0.0259981 13.8079 0.129998 13.8079 0.285998V8.424C13.8079 8.58 13.6981 8.684 13.5334 8.684H11.5843C11.4196 8.684 11.3098 8.58 11.3098 8.424V0.259998C11.3098 0.129998 11.4196 0.0259981 11.5843 0.0259981Z" fill="#4D1414"/>
<path d="M3.62353 -9.53674e-07H8.53725C9.44313 -9.53674e-07 10.1569 0.701999 10.1569 1.534V8.398C10.1569 8.45 10.1294 8.528 10.102 8.554L6.58823 12.662C6.53333 12.74 6.45098 12.766 6.34117 12.766C6.31372 12.74 6.31372 12.74 5.46274 12.532C4.91372 12.402 4.55686 11.882 4.66666 11.336C4.83137 10.53 5.13333 9.256 5.27059 8.658H1.97647C1.18039 8.658 0.713723 8.528 0.466664 8.268C0.192155 7.982 0.219605 7.592 0.247056 7.228C0.247056 7.124 0.274508 6.994 0.274508 6.89V5.044C0.274508 4.992 0.274508 4.966 0.301958 4.914C0.329409 4.888 1.78431 2.444 3.43137 0.0779991C3.45882 0.0259991 3.54117 -9.53674e-07 3.62353 -9.53674e-07Z" fill="#4D1414"/>
</svg>
