<svg width="29" height="28" viewBox="0 0 29 28" fill="none" xmlns="http://www.w3.org/2000/svg">
<path d="M4.99037 25.3263H0.937522C0.595028 25.3263 0.366699 25.1215 0.366699 24.8142V8.78483C0.366699 8.47755 0.595028 8.27271 0.937522 8.27271H4.99037C5.33286 8.27271 5.56119 8.47755 5.56119 8.78483V24.8654C5.56119 25.1215 5.33286 25.3263 4.99037 25.3263Z" fill="white"/>
<path d="M21.472 26.7879H10.904C8.95568 26.7879 7.42065 25.3799 7.42065 23.711V9.94322C7.42065 9.83892 7.47969 9.68247 7.53873 9.63032L15.0958 1.39049C15.2138 1.23404 15.391 1.18188 15.6271 1.18188C15.6862 1.23404 15.6862 1.23404 17.5164 1.65124C18.6972 1.912 19.4647 2.95501 19.2285 4.05018C18.8743 5.66686 18.2248 8.22225 17.9296 9.42172H25.0144C26.7265 9.42172 27.7302 9.68247 28.2615 10.204C28.8519 10.7776 28.7929 11.5599 28.7338 12.29C28.7338 12.4986 28.6748 12.7594 28.6748 12.968V16.6707C28.6748 16.775 28.6748 16.8271 28.6158 16.9314C28.5567 16.9836 25.4276 21.8858 21.8853 26.6315C21.8262 26.7358 21.6491 26.7879 21.472 26.7879Z" fill="white"/>
</svg>
